<?xml version="1.0" standalone="no"?>
<!DOCTYPE svg PUBLIC "-//W3C//DTD SVG 20010904//EN"
 "http://www.w3.org/TR/2001/REC-SVG-20010904/DTD/svg10.dtd">
<svg version="1.0" xmlns="http://www.w3.org/2000/svg"
 width="16.000000pt" height="16.000000pt" viewBox="0 0 16.000000 16.000000"
 preserveAspectRatio="xMidYMid meet">
<metadata>
Created by potrace 1.11, written by Peter Selinger 2001-2013
</metadata>
<g transform="translate(0.000000,16.000000) scale(0.007175,-0.007175)"
fill="#000000" stroke="none">
<path d="M820 1703 c-378 -55 -686 -224 -782 -429 -27 -56 -33 -82 -34 -142
-2 -83 13 -132 60 -205 61 -94 168 -183 301 -250 127 -63 364 -127 539 -145
132 -13 477 -4 506 13 3 1 28 6 55 9 179 24 420 120 552 221 168 128 234 277
194 440 l-12 50 -88 -2 c-213 -4 -401 107 -404 238 -1 22 -3 39 -5 39 -3 0
-23 -16 -45 -36 -178 -162 -555 -137 -682 44 -26 37 -30 53 -30 106 0 72 9 69
-125 49z m-30 -458 c204 -45 239 -188 66 -267 -44 -20 -66 -23 -161 -22 -91 1
-118 5 -158 23 -129 60 -145 158 -36 227 70 44 193 60 289 39z m838 -94 c79
-40 96 -111 38 -165 -80 -77 -244 -74 -318 5 -29 31 -35 61 -18 103 29 76 197
109 298 57z m-373 -287 c55 -28 66 -70 29 -107 -44 -45 -116 -47 -169 -6 -81
64 43 164 140 113z"/>
</g>
</svg>
